P1
92 92
0000110011000001010001001101010000110011000000000001011001000100101100000001010100100101000110001001011000010100000101010010000000100111000100101001000000010011100010010001001101010010010101001000010100101000010010000101001010011110100010100111101011100000110101001101010010000101011000010110011001010011100000010110010001001011000110010011001111000010101011110101110000011010100100100011000100101100001010100100000011001001100000010110010001001011000100100100010010000000101100110010101001001000100100000001011001100101010011001100000000000101100100010010110000000101010010000000001011001101010010010100000101000010010101001000010001101011000000101100100010010110000001010010110100100000000010110011001010000101001011010010000111101000101000101010011001010011000000000001011001000100101100010110000000101100110100100101011000010101011001111010001010100101001100000010110100101011001000010101001001000100101111100110000100101010010010001001000011001010011010010010101100000000011100011001010100100000011001001100000010110010001001011000100100100010011001110010010010111100001101010010101010001000110001001011000010101001001000100101100000010001101001010110000101001011010110001001011000101101100010010110000101010010111110100000000101100100010010110000000101010010010011100100100101111001010100100001000110101100001010010110100100011000100101100000001010010011011001010100111101010101110011100100100101111001010000101001011010010001100010010110000000101001001101100011110101101011100111001001001011110010101001001000100101010011010010101001100101001100000000000101100100010010110001011100111001001001011111010001100010010110000101010010010001001011111001100001001010100100100010010000110010100110100100101011001010001101010010010101001000000110010011000000101100100010010110001001100100010100101001000110001001011000110010101001111010100100101000110001001011000000001011011001001000101011000000000111000110010110101100110000000100001000100100001101000010000101010010010001001010100110100101010011001010011000000000001011001000100101100010110100100001101000010000000100111000100101010110110010010001010010000100011000100101100100101001100000010010110001001011000010101001100110000000000010110010001001011000101001001010000010100001001010100100000011001001100000010110010001001011001010100011101000000000100000001001110001000111010000000011111010000001011000011010011010010111100110100110111101111100011000010011010010111110100001001000010011010010101101100010010110100101000001010010011001101001101111001010000100101011110101100100000001001110001001010100100100010010101001101001011010100101100010000000100000001001110001000111010000000011111010000001011000011010011010010111100110100110111101011011000100101101001000010100101011111000101111101000010010000100110100100000101001001100110100110111100101000010010101011011000100101101001000010100101010011001100000000000101100100010010110001010010010100000101000010010101001001000100101111100110000100101010010010001001000011001010011010010010101100101000101101001101000100100101010010000001100100110000001011001000100101100010010010001001011000000010011101010000110011100100100101111001001010001100010010110001011001000000100011010010101100001010010110100100010010010101100001010000101001011010010001011010010101100100001010010001001001010101100000101011010100101010110110000101011110001101001011000010101011010010110001001011000010110100011010100101100001010010001001001010101101100000000010110011101010000110011100100100101111001001010001100010010110001011001000000001001100110111101011001000000010011100010010101001001000100101010011010010101001011111010000000010110010001001011000000010101101000110101001001000110000000100111010100100000100001101011010010110000000101010010001100000000010110011001000001000011010110101101100011001010001011101010010001001001010110000101000001010100100011000000000101100110010010010010000110101011011000110010100010111010100100010110100101011001000010100000101010010001010001010101000001010010110000101010011010101101000001010101100000000101100100010010110000001100111001001001011110010010100011000100101100010110010000000010011001101111010110010000000100111000100101010110110010100010110000101001001010110000101000010101101001010110010000101010110010000001000110100101011000010100101101001000000000101100110010100001010010110100100001111010001010001010100110011000000000001011001000100101100010100100101000001010000100101010010010001001011111001100001001010100100100010010000110010100110100100101011001001100001010010111101001001010100100000011001001100000010110010001001011000100110100100111000100101001000110001001011001010010011100010110110000101000011101001001000010101111001011000001001011110010110000100000111101011001000000010011100010111101011100000110101001100111001001001011110010010100011000100101100001010100100001100110000000000010110010001001011000000010101001001010101101010010110101100001000001000011010110100101100001010000010101010100101101101100001010000100001110100100100001001001101100101001010100000101001001110100100111000100101001000110001001011000101101100010010110100100011000010100000101010101001011011110010110000010100110110000010110110001001011010010000101001010100110011000000000001011001000100101100010100100101000001010000100101010010000110011010100000010101011000000001011001000100101100010110000001100100111000010011001010010110011000010010100101011000101100000001010000010101001000110001001011000000101001011000100101100001010010001111001011000001001100110000100001000001001110001001010100100100010010111110011000010010101001001000100100001100101001101001001010110000111011000100110100010010010101001000000110010011000000101100100010010110010101001011000100000001000000010011100010110110000101000011101001001000101101100010010110100100000010010001100001000010110011011001010000101001110100110101001010000010011100010101101100010010110100100001010100100100010010101001101001010100101111101000000001011001000100101100000001010100111010011010100100000001001110001010110110001001011010010000101000001010100100000010010001100001000101101100010010110100100001010000010101010100101110011011001010000100000000001101100001000101101100010010110100100001010010101001100110000000000010110010001001011000101001001010000010100001001010100100000011001001100000010110010001001011000110101111101000010000000000110110000001100010101101100011010010101010000110110000101101010110100101001010100110011000110010100001000110001010101001000100101100001010000101111001011000000100101000110001001011000010100001000010010001100001000010100001010100101100100000001001110001001010000101010010110010010011011001010000100100110110010100011110101100100000001001110001001010100100001100110000000000010110010001001011000000010101001000000000011011000000110001010110110000101000011000101011011000000001011001000100101100000011001100000000001010100101001100101010011001010110110010000010010000001100110000000000101010110000101010010000110011010100000010101011000000001011001000100101100001010100100000011001001101011001000110000000010110010001001011001000010011001010010110011000010010100101011000101100000001010000010101001000000010011100010010101010000011010000100001011001100011001010000100011000101010100100010010110000101000010111100101100000010010100011000100101100001010000101010010110011101001001000010010011011001010010101011110101100100000001001110001001010100100000011001001100000010110010001001011000010001101001000110110101101010100101011010100110000000101010101001011011111010000001001101001101111001101001101111000001010010011011110101110000011010100101010010110010000000100111000100101000001010101010010110010001111100010000010100100110000100101100001001101001011111000100110100110111100110100110111101011010100110001001001000100100100010110000001010010110010000101010110101001011001110100110101001000000010011100010010101011010100101101111001011000000100101000110001001011000010101011010100101110011001010110010100011110101100100000001001110001000001010010011000010010101101100001010000111010010010000000101010101001011010011001110010011111010000001010110000001010010110010000101010010010001001010100110100101010011001100000000000101100100010010110000000101010101001011000001010010011011111010000100001010010001101001000100000101000010110000000000110010101001001000100101111100110000100101010010010001001000011001010011010010010101100001001010010100010011111111111111111111111111111111111111111111111111111111111111111111111111111111111111111111111111111111111111